<?xml version="1.0" encoding="UTF-8"?>
<svg xmlns="http://www.w3.org/2000/svg" version="1.1" viewBox="0 0 344.89 332.28">
  <!-- Generator: Adobe Illustrator 28.6.0, SVG Export Plug-In . SVG Version: 1.2.0 Build 709)  -->
  <g>
    <g id="Layer_1">
      <path d="M129.97,13.36c-1.47,6.89-3.18,10.59-4.97,18.64-2,9-.32,14.65,10,15,3.3.11,11,0,11,0-27,28-13.16,52.4-2,68,5.13,7.18,17,18,26.99,25.09,45.84,32.55,91.35,65.58,136.97,98.45,6.11,4.4,18.04,14.46,18.04,14.46,0,0-23-5-48-8-46.54-5.58-74-8-100.18,1.46-17.97,6.5-27.68,16.19-37.82,31.54-13.87,20.97-18.83,35.36-18.83,35.36l-2-2s14.73-29.76,11.83-45.36c-.9-.45-1.1-.55-2-1-3.77,4.66-6.4,9.49-9.34,14.62-4.61,8.04-13.49,26.73-13.49,26.73,0,0-1.54.49-3.51.92,6.66-11.24,10.98-22.92,12.27-35.5,1.22-11.88-4.27-22.05-10.4-31.5-10.1-15.56-23.49-34.67-33.52-50.28-9-14-6-26,0-39,3.47-7.52,8.15-15.73,9.24-23.89,2.48-18.66-7.52-25.02-21.5-32.81-10.69-5.96-37.13-14.79-39.34-15.75,8.77-5.23,17-10.14,25.23-15.05,24.75-14.76,60.66-35.68,85.38-50.5"/>
    </g>
  </g>
</svg>